<?xml version="1.0" standalone="no"?><!DOCTYPE svg PUBLIC "-//W3C//DTD SVG 1.1//EN" "http://www.w3.org/Graphics/SVG/1.1/DTD/svg11.dtd"><svg t="1572924252319" class="icon" viewBox="0 0 4140 1024" version="1.1" xmlns="http://www.w3.org/2000/svg" p-id="25420" xmlns:xlink="http://www.w3.org/1999/xlink" width="808.59375" height="200"><defs><style type="text/css"></style></defs><path d="M3769.362773 307.2c55.466667-34.133333 123.733333-46.933333 187.733334-38.4 42.666667 4.266667 85.333333 17.066667 128 34.133333V426.666667c-59.733333-25.6-119.466667-55.466667-183.466667-46.933334-29.866667 0-55.466667 21.333333-64 51.2 0 29.866667 12.8 55.466667 38.4 68.266667 55.466667 38.4 115.2 64 166.4 110.933333 29.866667 25.6 51.2 55.466667 64 93.866667 17.066667 55.466667 4.266667 110.933333-29.866667 153.6-38.4 42.666667-93.866667 72.533333-149.333333 76.8-72.533333 8.533333-149.333333 0-217.6-29.866667v-128c51.2 29.866667 102.4 46.933333 162.133333 55.466667 34.133333 4.266667 64-4.266667 89.6-29.866667 17.066667-25.6 17.066667-59.733333 0-81.066666-25.6-25.6-51.2-51.2-85.333333-68.266667-51.2-25.6-98.133333-64-136.533333-106.666667-59.733333-81.066667-42.666667-183.466667 29.866666-238.933333zM3073.896107 268.8h132.266666v362.666667c-4.266667 46.933333 12.8 93.866667 38.4 132.266666 21.333333 29.866667 55.466667 46.933333 93.866667 46.933334 42.666667 4.266667 89.6-8.533333 119.466667-38.4 29.866667-38.4 46.933333-85.333333 42.666666-136.533334V268.8h132.266667v366.933333c0 85.333333-25.6 174.933333-85.333333 234.666667-51.2 46.933333-119.466667 72.533333-187.733334 68.266667-72.533333 4.266667-145.066667-21.333333-200.533333-68.266667-46.933333-51.2-76.8-115.2-85.333333-183.466667V268.8zM2527.762773 341.333333c55.466667-51.2 132.266667-76.8 209.066667-72.533333 72.533333 0 145.066667 25.6 196.266667 76.8 51.2 64 76.8 140.8 76.8 226.133333V938.666667h-132.266667v-362.666667c4.266667-46.933333-8.533333-93.866667-34.133333-132.266667-21.333333-29.866667-55.466667-46.933333-89.6-51.2-38.4-4.266667-81.066667 4.266667-115.2 25.6-17.066667 17.066667-34.133333 34.133333-42.666667 59.733334-17.066667-46.933333-38.4-93.866667-68.266667-136.533334zM1665.896107 302.933333c89.6-25.6 179.2-38.4 268.8-34.133333 51.2 4.266667 102.4 25.6 145.066666 59.733333 55.466667-29.866667 110.933333-46.933333 170.666667-59.733333 85.333333-12.8 170.666667 12.8 234.666667 68.266667-25.6 42.666667-46.933333 89.6-64 140.8-12.8-25.6-29.866667-51.2-55.466667-64-38.4-17.066667-81.066667-25.6-123.733333-17.066667-21.333333 0-42.666667 12.8-64 25.6V938.666667h-132.266667v-371.2c4.266667-46.933333-12.8-98.133333-46.933333-136.533334-38.4-29.866667-85.333333-42.666667-136.533334-38.4-25.6 0-55.466667 8.533333-76.8 25.6v516.266667H1665.896107V302.933333z m-221.866667-29.866666c51.2-8.533333 106.666667-4.266667 157.866667 12.8v153.6c-34.133333-34.133333-81.066667-46.933333-128-38.4-34.133333 4.266667-68.266667 21.333333-93.866667 46.933333-25.6 38.4-38.4 85.333333-34.133333 132.266667V938.666667h-132.266667v-362.666667c-4.266667-76.8 21.333333-153.6 68.266667-217.6 38.4-51.2 98.133333-81.066667 162.133333-85.333333z m-729.6 183.466666c-46.933333 55.466667-68.266667 123.733333-55.466667 196.266667 110.933333-59.733333 226.133333-115.2 337.066667-174.933333-38.4-42.666667-89.6-68.266667-145.066667-76.8-51.2-4.266667-102.4 17.066667-136.533333 55.466666z m-81.066667-106.666666c64-55.466667 149.333333-85.333333 234.666667-81.066667 149.333333 17.066667 268.8 123.733333 302.933333 268.8C1025.896107 614.4 876.562773 691.2 727.22944 768c38.4 34.133333 89.6 46.933333 136.533333 38.4 59.733333-4.266667 115.2-34.133333 149.333334-85.333333l81.066666 106.666666c-51.2 59.733333-119.466667 98.133333-196.266666 106.666667-68.266667 12.8-140.8 0-200.533334-34.133333-72.533333-38.4-123.733333-102.4-153.6-179.2-21.333333-64-25.6-132.266667-12.8-200.533334s51.2-123.733333 102.4-170.666666zM134.162773 85.333333v183.466667h315.733334v128H134.162773v174.933333c-4.266667 29.866667 0 64 8.533334 93.866667 21.333333 68.266667 76.8 119.466667 145.066666 136.533333 68.266667 17.066667 140.8-8.533333 187.733334-59.733333l64 119.466667c-123.733333 106.666667-311.466667 102.4-430.933334-12.8-17.066667-17.066667-34.133333-34.133333-46.933333-55.466667C23.22944 738.133333 1.896107 669.866667 1.896107 601.6c-4.266667-115.2 0-226.133333 0-341.333333V85.333333h132.266666z" fill="#0947A6" p-id="25421"></path><path d="M2506.42944 362.666667c46.933333 64 68.266667 140.8 68.266667 217.6V938.666667h-132.266667v-362.666667c0-76.8 21.333333-153.6 64-213.333333z m-17.066667-226.133334c17.066667-4.266667 38.4-4.266667 55.466667 8.533334 17.066667 8.533333 25.6 25.6 29.866667 42.666666 4.266667 17.066667 0 38.4-12.8 51.2-8.533333 17.066667-25.6 25.6-46.933334 29.866667-34.133333 4.266667-68.266667-17.066667-72.533333-51.2-4.266667-38.4 12.8-72.533333 46.933333-81.066667z" fill="#16A3EB" p-id="25422"></path></svg>